<svg width="30" height="23" viewBox="0 0 30 23" fill="none" xmlns="http://www.w3.org/2000/svg">
<path d="M29 9.60707C29.5523 9.60707 30 9.15935 30 8.60707C30 8.05478 29.5523 7.60707 29 7.60707V9.60707ZM1 7.60707C0.447715 7.60707 0 8.05478 0 8.60707C0 9.15935 0.447715 9.60707 1 9.60707V7.60707ZM29 2.9404C29.5523 2.9404 30 2.49268 30 1.9404C30 1.38811 29.5523 0.940399 29 0.940399V2.9404ZM1 0.940399C0.447715 0.940399 0 1.38811 0 1.9404C0 2.49268 0.447715 2.9404 1 2.9404V0.940399ZM29 16.2737C29.5523 16.2737 30 15.826 30 15.2737C30 14.7214 29.5523 14.2737 29 14.2737V16.2737ZM1 14.2737C0.447715 14.2737 0 14.7214 0 15.2737C0 15.826 0.447715 16.2737 1 16.2737V14.2737ZM29 22.9404C29.5523 22.9404 30 22.4927 30 21.9404C30 21.3881 29.5523 20.9404 29 20.9404V22.9404ZM1 20.9404C0.447715 20.9404 0 21.3881 0 21.9404C0 22.4927 0.447715 22.9404 1 22.9404V20.9404ZM29 7.60707H1V9.60707H29V7.60707ZM29 0.940399H1V2.9404H29V0.940399ZM29 14.2737H1V16.2737H29V14.2737ZM29 20.9404H1V22.9404H29V20.9404Z" fill="#9C9A9A"/>
</svg>
