<svg width="30" height="22" viewBox="0 0 30 22" fill="none" xmlns="http://www.w3.org/2000/svg">
<path d="M29 8.66667C29.5523 8.66667 30 8.21895 30 7.66667C30 7.11438 29.5523 6.66667 29 6.66667V8.66667ZM1 6.66667C0.447715 6.66667 0 7.11438 0 7.66667C0 8.21895 0.447715 8.66667 1 8.66667V6.66667ZM29 2C29.5523 2 30 1.55228 30 1C30 0.447715 29.5523 0 29 0V2ZM1 0C0.447715 0 0 0.447715 0 1C0 1.55228 0.447715 2 1 2V0ZM29 15.3333C29.5523 15.3333 30 14.8856 30 14.3333C30 13.781 29.5523 13.3333 29 13.3333V15.3333ZM1 13.3333C0.447715 13.3333 0 13.781 0 14.3333C0 14.8856 0.447715 15.3333 1 15.3333V13.3333ZM29 22C29.5523 22 30 21.5523 30 21C30 20.4477 29.5523 20 29 20V22ZM1 20C0.447715 20 0 20.4477 0 21C0 21.5523 0.447715 22 1 22V20ZM29 6.66667H1V8.66667H29V6.66667ZM29 0H1V2H29V0ZM29 13.3333H1V15.3333H29V13.3333ZM29 20H1V22H29V20Z" fill="white"/>
</svg>
